<svg width="30" height="30" viewBox="0 0 30 30" fill="none" xmlns="http://www.w3.org/2000/svg">
<circle cx="15" cy="15" r="15" fill="#ECC30B"/>
<path d="M10.996 15C10.996 17.2088 12.7928 19.0056 15.0016 19.0056C17.2104 19.0056 19.0072 17.2088 19.0072 15C19.0072 12.7912 17.2104 10.9944 15.0016 10.9944C12.7928 10.9944 10.996 12.7912 10.996 15ZM15.0016 12.5944C16.328 12.5944 17.4072 13.6736 17.4072 15C17.4072 16.3264 16.328 17.4056 15.0016 17.4056C13.6752 17.4056 12.596 16.3264 12.596 15C12.596 13.6736 13.6752 12.5944 15.0016 12.5944ZM14.2 20.6H15.8V23H14.2V20.6ZM14.2 7H15.8V9.4H14.2V7ZM7 14.2H9.4V15.8H7V14.2ZM20.6 14.2H23V15.8H20.6V14.2ZM8.7768 20.0904L10.4728 18.3928L11.6048 19.524L9.9088 21.2216L8.7768 20.0904ZM18.3936 10.4752L20.0912 8.7776L21.2224 9.9088L19.5248 11.6064L18.3936 10.4752ZM10.4752 11.6072L8.7776 9.9096L9.9096 8.7784L11.6056 10.476L10.4752 11.6072ZM21.2224 20.0912L20.0912 21.2224L18.3936 19.5248L19.5248 18.3936L21.2224 20.0912Z" fill="#FFECE5"/>
</svg>
