<svg width="30" height="30" viewBox="0 0 30 30" fill="none" xmlns="http://www.w3.org/2000/svg">
<circle cx="15" cy="15" r="15" fill="#F37748"/>
<path d="M10.996 16C10.996 18.2088 12.7928 20.0056 15.0016 20.0056C17.2104 20.0056 19.0072 18.2088 19.0072 16C19.0072 13.7912 17.2104 11.9944 15.0016 11.9944C12.7928 11.9944 10.996 13.7912 10.996 16ZM14.2 21.6H15.8V24H14.2V21.6ZM14.2 8H15.8V10.4H14.2V8ZM7 15.2H9.4V16.8H7V15.2ZM20.6 15.2H23V16.8H20.6V15.2ZM9.9096 22.2224L8.7784 21.0912L10.4752 19.3944L11.6064 20.5256L9.9096 22.2224ZM18.3936 11.4752L20.0912 9.7776L21.2224 10.9088L19.5248 12.6064L18.3936 11.4752ZM10.4752 12.6072L8.7784 10.9096L9.9104 9.7784L11.6064 11.476L10.4752 12.6072ZM21.2224 21.0912L20.0912 22.2224L18.3936 20.5248L19.5248 19.3936L21.2224 21.0912Z" fill="#EB1B1F"/>
<rect x="5" y="17" width="18" height="9" fill="#F37748"/>
</svg>
