<svg width="200" height="200" viewBox="0 0 200 200" fill="none" xmlns="http://www.w3.org/2000/svg">
<path d="M100 16.6666C54.05 16.6666 16.6667 54.05 16.6667 100C16.6667 145.95 54.05 183.333 100 183.333C145.95 183.333 183.333 145.95 183.333 100C183.333 54.05 145.95 16.6666 100 16.6666ZM100 166.667C63.2417 166.667 33.3333 136.758 33.3333 100C33.3333 90.2666 35.4833 81.0416 39.2417 72.7C40.525 73.45 41.8083 74.2166 43.0417 75C46.3417 77.0833 49.6333 79.1666 53.7583 80.7333C57.875 82.2916 62.825 83.3333 69.4167 83.3333C76.0167 83.3333 80.9667 82.2916 85.0917 80.725C89.2167 79.1583 92.5167 77.0833 95.8167 75C99.1167 72.9166 102.417 70.8333 106.542 69.2666C110.658 67.7083 115.608 66.6666 122.208 66.6666C128.808 66.6666 133.758 67.7083 137.875 69.275C142 70.8333 145.3 72.9166 148.6 75C151.9 77.0833 155.2 79.1666 159.325 80.7333C160.808 81.2916 162.442 81.75 164.167 82.1583C165.758 87.8416 166.667 93.8083 166.667 100C166.667 136.758 136.758 166.667 100 166.667Z" fill="#00263D"/>
<path d="M70.8333 116.667C77.7369 116.667 83.3333 111.07 83.3333 104.167C83.3333 97.2631 77.7369 91.6666 70.8333 91.6666C63.9298 91.6666 58.3333 97.2631 58.3333 104.167C58.3333 111.07 63.9298 116.667 70.8333 116.667Z" fill="#00263D"/>
<path d="M129.167 116.667C136.07 116.667 141.667 111.07 141.667 104.167C141.667 97.2631 136.07 91.6666 129.167 91.6666C122.263 91.6666 116.667 97.2631 116.667 104.167C116.667 111.07 122.263 116.667 129.167 116.667Z" fill="#00263D"/>
</svg>
