<svg width="30" height="30" viewBox="0 0 30 30" fill="none" xmlns="http://www.w3.org/2000/svg">
<circle cx="15" cy="15" r="15" fill="#00263D"/>
<path d="M20.828 15.6967C20.3762 15.8167 19.9108 15.8774 19.4433 15.8774C18.02 15.8774 16.6833 15.324 15.6793 14.32C15.02 13.6569 14.546 12.8326 14.3046 11.9292C14.0632 11.0258 14.0627 10.075 14.3033 9.17135C14.3334 9.05837 14.3332 8.93948 14.3028 8.8266C14.2724 8.71372 14.2128 8.61082 14.1301 8.52822C14.0474 8.44562 13.9444 8.38623 13.8314 8.35601C13.7185 8.32578 13.5996 8.32579 13.4867 8.35602C12.3554 8.65747 11.3234 9.2511 10.494 10.0774C7.89534 12.676 7.89534 16.906 10.494 19.506C11.1117 20.1271 11.8464 20.6196 12.6557 20.9549C13.465 21.2902 14.3327 21.4616 15.2087 21.4594C16.0844 21.4618 16.9519 21.2905 17.761 20.9553C18.5701 20.6201 19.3046 20.1277 19.922 19.5067C20.7489 18.6772 21.3428 17.6445 21.644 16.5127C21.6739 16.3998 21.6737 16.2809 21.6433 16.1681C21.6129 16.0553 21.5534 15.9525 21.4708 15.8699C21.3882 15.7873 21.2853 15.7278 21.1725 15.6974C21.0597 15.667 20.9409 15.6668 20.828 15.6967ZM18.98 18.564C18.486 19.0608 17.8984 19.4546 17.2511 19.7227C16.6039 19.9908 15.9099 20.1279 15.2093 20.126C14.5085 20.1278 13.8143 19.9906 13.1669 19.7223C12.5194 19.4541 11.9316 19.0602 11.4373 18.5634C9.35867 16.484 9.35867 13.1 11.4373 11.0207C11.839 10.6195 12.3027 10.2856 12.8107 10.032C12.7363 10.9914 12.87 11.9555 13.2025 12.8585C13.535 13.7614 14.0585 14.582 14.7373 15.264C15.4179 15.9449 16.2382 16.4699 17.1415 16.8027C18.0449 17.1355 19.0097 17.2681 19.9693 17.1914C19.7144 17.6984 19.3804 18.1618 18.98 18.564Z" fill="#FFECE5"/>
</svg>
