<svg width="300" height="300" viewBox="0 0 300 300" fill="none" xmlns="http://www.w3.org/2000/svg">
<circle cx="150" cy="150" r="150" fill="#84BCDA"/>
<ellipse cx="29" cy="10" rx="29" ry="10" transform="matrix(-0.983192 0.182575 0.182575 0.983192 140.025 232)" fill="#F37748"/>
<ellipse cx="181.338" cy="247.127" rx="29" ry="10" transform="rotate(10.5198 181.338 247.127)" fill="#F37748"/>
<ellipse cx="231.338" cy="134.127" rx="29" ry="10" transform="rotate(10.5198 231.338 134.127)" fill="#F37748"/>
<ellipse cx="29" cy="10" rx="29" ry="10" transform="matrix(-0.983192 0.182575 0.182575 0.983192 94.0251 123)" fill="#F37748"/>
<ellipse cx="148" cy="146" rx="70" ry="101" fill="url(#paint0_radial_125_511)"/>
<circle cx="116.475" cy="108.35" r="22.875" fill="#D9D9D9"/>
<circle cx="175.95" cy="108.35" r="22.875" fill="#D9D9D9"/>
<circle cx="148.5" cy="172.4" r="50.325" fill="#D9D9D9"/>
<circle cx="148.5" cy="117.5" r="18.3" fill="#D9D9D9"/>
<circle cx="173.662" cy="107.213" r="11.4375" fill="black"/>
<circle cx="119.338" cy="108.213" r="11.4375" fill="black"/>
<circle cx="171.375" cy="109.5" r="4.575" fill="#D9D9D9"/>
<circle cx="117.05" cy="110.5" r="4.575" fill="#D9D9D9"/>
<circle cx="123.912" cy="103.637" r="2.2875" fill="#D9D9D9"/>
<circle cx="178.237" cy="102.637" r="2.2875" fill="#D9D9D9"/>
<circle cx="150.788" cy="120.938" r="6.8625" fill="#F37748"/>
<defs>
<radialGradient id="paint0_radial_125_511" cx="0" cy="0" r="1" gradientUnits="userSpaceOnUse" gradientTransform="translate(148 146) rotate(90) scale(101 70)">
<stop stop-color="#0066A3"/>
<stop offset="1" stop-color="#00263D"/>
</radialGradient>
</defs>
</svg>
