<svg width="800" height="800" viewBox="0 0 800 800" fill="none" xmlns="http://www.w3.org/2000/svg">
<path d="M759 399.5C759 307.072 721.124 218.43 653.705 153.073C586.286 87.7169 494.845 51 399.5 51C304.155 51 212.714 87.7168 145.295 153.073C77.8758 218.43 40 307.072 40 399.5L211.542 399.5C211.542 351.176 231.345 304.831 266.594 270.661C301.843 236.49 349.651 217.294 399.5 217.294C449.349 217.294 497.157 236.49 532.406 270.661C567.655 304.831 587.458 351.176 587.458 399.5H759Z" fill="#E4B6FF"/>
<path d="M40.7151 398.499C40.5255 490.927 78.2193 579.647 145.504 645.142C212.789 710.636 304.154 747.541 399.499 747.736C494.844 747.932 586.36 711.403 653.913 646.185C721.466 580.967 759.524 492.402 759.714 399.975L588.172 399.623C588.072 447.947 568.175 494.251 532.856 528.349C497.537 562.447 449.69 581.545 399.84 581.443C349.991 581.341 302.223 562.046 267.044 527.803C231.865 493.561 212.158 447.175 212.257 398.851L40.7151 398.499Z" fill="#EED872"/>
<path d="M471.25 160.25C475 165.5 480.75 168.5 486.75 168.5C490.25 168.5 494 167.5 497.25 165.25C505.75 159.5 508 147.75 502.25 139.25L475.25 99.5C469.5 91 457.75 88.75 449.25 94.5C440.75 100.25 438.5 112 444.25 120.5L471.25 160.25Z" fill="white"/>
<path d="M179.25 293.75C181.5 294.5 183.75 295 186 295C193.5 295 200.75 290.5 203.5 283L221.75 235.25C225.5 225.5 220.75 214.75 211 211C201.5 207.25 190.5 212 186.75 221.75L168.5 269.5C164.75 279.25 169.5 290 179.25 293.75Z" fill="white"/>
<path d="M617 453.25C606.75 452.25 597.5 459.5 596.25 469.75L591.25 515C590.25 525.25 597.5 534.5 608 535.75C608.75 535.75 609.25 535.75 610 535.75C619.5 535.75 627.5 528.75 628.75 519L633.75 473.75C634.75 463.5 627.5 454.25 617 453V453.25Z" fill="white"/>
<path d="M308.75 607.75L267.25 617.5C257.25 619.75 251 630 253.25 640C255.25 648.75 263 654.5 271.5 654.5C273 654.5 274.5 654.5 275.75 654L317.25 644.25C327.25 642 333.5 631.75 331.25 621.75C328.75 611.75 318.5 605.5 308.75 607.75Z" fill="white"/>
<path d="M768.25 406.75C768.25 404.5 768.5 402.25 768.5 400C768.75 196.75 603.25 31.25 400 31.25C196.75 31.25 43 185.75 32.25 379.75C31.25 382 30.5 384.5 30.5 387.25C30.5 389.25 31 391.25 31.5 393.25C31.5 395.5 31.25 397.75 31.25 400C31.25 603.25 196.75 768.75 400 768.75C603.25 768.75 757 614.25 767.75 420.25C768.75 418 769.5 415.5 769.5 412.75C769.5 410.75 769 408.75 768.5 406.75H768.25ZM400 68.75C573.5 68.75 716 202.75 729.75 372.75C725.25 370.5 720.5 368.75 714.25 368.75C695.75 368.75 686.25 382 681 389C680.25 390 679.25 391.5 678.5 392.5C677.75 391.5 676.75 390 676 389C671 382 661.5 368.75 643 368.75C624.5 368.75 615 382 610 389C609.25 390 608.25 391.5 607.5 392.5C606.75 391.5 605.75 390 605 389C601.75 384.5 596.5 377.75 588.5 373.25C575.5 280.75 496.25 209.5 400.25 209.5C304.25 209.5 224.25 281.5 211.75 374.5C206.75 371.25 200.75 368.5 192.75 368.5C174.25 368.5 164.75 381.75 159.5 388.75C158.75 389.75 157.75 391.25 157 392.25C156.25 391.25 155.25 389.75 154.5 388.75C149.5 381.75 140 368.5 121.5 368.5C103 368.5 93.5 381.75 88.5 388.75C87.75 389.75 86.75 391.25 86 392.25C85.25 391.25 84.25 389.75 83.5 388.75C80.75 385 76.5 379.25 70.5 375C82.75 204.25 225.75 68.75 400 68.75ZM553 400C553 484.25 484.5 553 400 553C320.25 553 254.5 491.5 247.75 413.25C247.75 413.25 247.75 413.25 247.75 413C247.75 413 247.75 412.5 247.75 412.25C247.5 408.25 247.25 404.25 247.25 400.25C247.25 316 315.75 247.5 400 247.5C479.75 247.5 545.5 309 552.25 387.25C552.25 387.25 552.25 387.5 552.25 387.75C552.25 388 552.25 388.25 552.25 388.5C552.5 392.5 552.75 396.5 552.75 400.5L553 400ZM400 731.25C226.5 731.25 84 597.25 70.25 427.25C74.5 429.5 79.5 431.25 85.75 431.25C104.25 431.25 113.75 418 118.75 410.75C119.5 409.75 120.5 408.5 121.25 407.25C122 408.25 123 409.75 123.75 410.75C128.75 417.75 138.25 431 156.75 431C175.25 431 184.75 417.75 189.75 410.75C190.5 409.75 191.5 408.25 192.25 407.25C193 408.25 194 409.75 194.75 410.75C198 415.25 203.25 422 211.25 426.5C224.25 519 303.5 590.25 399.5 590.25C495.5 590.25 575.5 518.25 588 425.25C593 428.5 599 431.25 606.75 431.25C625.25 431.25 634.75 418 639.75 410.75C640.5 409.75 641.5 408.5 642.25 407.25C643 408.25 644 409.75 644.75 410.75C649.75 417.75 659.25 431 677.75 431C696.25 431 705.75 417.75 711 410.75C711.75 409.75 712.75 408.25 713.5 407.25C714.25 408.25 715.25 409.75 716 410.75C718.75 414.5 723 420.25 729 424.5C716.25 595.75 573.25 731 399 731L400 731.25Z" fill="#5D4F4F"/>
</svg>
